<?xml version="1.0" encoding="utf-8"?><svg xmlns="http://www.w3.org/2000/svg" xmlns:xlink="http://www.w3.org/1999/xlink" width="1536" height="714" preserveAspectRatio="xMidYMid" viewBox="0 0 1536 714" style="z-index:1;margin-right:-2px;display:block;background-repeat-y:initial;background-repeat-x:initial;background-color:rgb(241, 242, 243);animation-play-state:paused" ><g transform="translate(768,357) scale(1,1) translate(-768,-357)" style="transform:matrix(1, 0, 0, 1, 0, 0);animation-play-state:paused" ><defs style="animation-play-state:paused" ><linearGradient id="lg-0.2609282344782329" x1="0" x2="0" y1="0" y2="1" style="animation-play-state:paused" ><stop stop-color="#fec395" offset="0" style="animation-play-state:paused" ></stop>

  
<stop stop-color="#fea662" offset="1" style="animation-play-state:paused" ></stop></linearGradient></defs>


<rect x="0" y="0" width="1536" height="714" fill="url(#lg-0.2609282344782329)" style="animation-play-state:paused" ></rect>
<circle cx="0" cy="293.63669365624327" r="40.302755286463956" fill="#fdf5ee" transform="matrix(1,0,0,1,0,0)" style="transform:matrix(1, 0, 0, 1, 0, 0);animation-play-state:paused" ></circle>
<circle cx="40.302755286463956" cy="250.03966227470423" r="80.87788784655616" fill="#fdf5ee" transform="matrix(1,0,0,1,-0.005429744720458984,0)" style="transform:matrix(1, 0, 0, 1, -0.00542974, 0);animation-play-state:paused" ></circle>
<circle cx="121.18064313302011" cy="266.1242269770213" r="75.07582174089602" fill="#fdf5ee" transform="matrix(1,0,0,1,-0.022117653861641884,0)" style="transform:matrix(1, 0, 0, 1, -0.0221177, 0);animation-play-state:paused" ></circle>
<circle cx="196.25646487391612" cy="307.34151237902995" r="38.79612223779544" fill="#fdf5ee" transform="matrix(1,0,0,1,-0.05069183558225632,0)" style="transform:matrix(1, 0, 0, 1, -0.0506918, 0);animation-play-state:paused" ></circle>
<circle cx="235.05258711171155" cy="269.79220330125986" r="86.71210098712018" fill="#fdf5ee" transform="matrix(1,0,0,1,-0.09182170033454895,0)" style="transform:matrix(1, 0, 0, 1, -0.0918217, 0);animation-play-state:paused" ></circle>
<circle cx="321.7646880988317" cy="305.0255416435009" r="53.029540058901496" fill="#fdf5ee" transform="matrix(1,0,0,1,-0.14621886610984802,0)" style="transform:matrix(1, 0, 0, 1, -0.146219, 0);animation-play-state:paused" ></circle>
<circle cx="374.7942281577332" cy="307.14622385982125" r="56.72962689536139" fill="#fdf5ee" transform="matrix(1,0,0,1,-0.21463720500469208,0)" style="transform:matrix(1, 0, 0, 1, -0.214637, 0);animation-play-state:paused" ></circle>
<circle cx="431.52385505309456" cy="308.11675111999244" r="64.44819226821171" fill="#fdf5ee" transform="matrix(1,0,0,1,-0.2978716492652893,0)" style="transform:matrix(1, 0, 0, 1, -0.297872, 0);animation-play-state:paused" ></circle>
<circle cx="495.97204732130626" cy="315.7184636708301" r="61.8325546512344" fill="#fdf5ee" transform="matrix(1,0,0,1,-0.3967548906803131,0)" style="transform:matrix(1, 0, 0, 1, -0.396755, 0);animation-play-state:paused" ></circle>
<circle cx="557.8046019725407" cy="323.90334314181933" r="55.100447002757846" fill="#fdf5ee" transform="matrix(1,0,0,1,-0.5121519565582275,0)" style="transform:matrix(1, 0, 0, 1, -0.512152, 0);animation-play-state:paused" ></circle>
<circle cx="612.9050489752985" cy="323.76385578250193" r="75.25152960872288" fill="#fdf5ee" transform="matrix(1,0,0,1,-0.6449503302574158,0)" style="transform:matrix(1, 0, 0, 1, -0.64495, 0);animation-play-state:paused" ></circle>
<circle cx="688.1565785840214" cy="332.7624080323892" r="74.04566029891811" fill="#fdf5ee" transform="matrix(1,0,0,1,-0.7960466146469116,0)" style="transform:matrix(1, 0, 0, 1, -0.796047, 0);animation-play-state:paused" ></circle>
<circle cx="762.2022388829396" cy="341.506094161567" r="54.52100047154005" fill="#fdf5ee" transform="matrix(1,0,0,1,-0.9663257002830505,0)" style="transform:matrix(1, 0, 0, 1, -0.966326, 0);animation-play-state:paused" ></circle>
<circle cx="816.7232393544796" cy="338.4287818523556" r="46.90943469222102" fill="#fdf5ee" transform="matrix(1,0,0,1,-1.156632423400879,0)" style="transform:matrix(1, 0, 0, 1, -1.15663, 0);animation-play-state:paused" ></circle>
<circle cx="863.6326740467006" cy="332.3158098032717" r="64.80924838386824" fill="#fdf5ee" transform="matrix(1,0,0,1,-1.3677335977554321,0)" style="transform:matrix(1, 0, 0, 1, -1.36773, 0);animation-play-state:paused" ></circle>
<circle cx="928.4419224305689" cy="324.5854749713028" r="69.46623332308498" fill="#fdf5ee" transform="matrix(1,0,0,1,-1.600266933441162,0)" style="transform:matrix(1, 0, 0, 1, -1.60027, 0);animation-play-state:paused" ></circle>
<circle cx="997.9081557536539" cy="325.83061249057897" r="45.01105222694993" fill="#fdf5ee" transform="matrix(1,0,0,1,-1.8546782732009888,0)" style="transform:matrix(1, 0, 0, 1, -1.85468, 0);animation-play-state:paused" ></circle>
<circle cx="1042.919207980604" cy="317.4529123799169" r="57.14455600338256" fill="#fdf5ee" transform="matrix(1,0,0,1,-2.131143569946289,0)" style="transform:matrix(1, 0, 0, 1, -2.13114, 0);animation-play-state:paused" ></circle>
<circle cx="1100.0637639839865" cy="319.81205753227226" r="42.76372407809764" fill="#fdf5ee" transform="matrix(1,0,0,1,-2.4294803142547607,0)" style="transform:matrix(1, 0, 0, 1, -2.42948, 0);animation-play-state:paused" ></circle>
<circle cx="1142.827488062084" cy="307.22151118923057" r="59.38260545930323" fill="#fdf5ee" transform="matrix(1,0,0,1,-2.749046802520752,0)" style="transform:matrix(1, 0, 0, 1, -2.74905, 0);animation-play-state:paused" ></circle>
<circle cx="1202.2100935213873" cy="284.2794139413202" r="85.07673043242038" fill="#fdf5ee" transform="matrix(1,0,0,1,-3.0886495113372803,0)" style="transform:matrix(1, 0, 0, 1, -3.08865, 0);animation-play-state:paused" ></circle>
<circle cx="1287.2868239538077" cy="282.45675669855893" r="73.38463822897243" fill="#fdf5ee" transform="matrix(1,0,0,1,-3.446460723876953,0)" style="transform:matrix(1, 0, 0, 1, -3.44646, 0);animation-play-state:paused" ></circle>
<circle cx="1360.67146218278" cy="284.37883319296947" r="62.22257879716584" fill="#fdf5ee" transform="matrix(1,0,0,1,-3.819972276687622,0)" style="transform:matrix(1, 0, 0, 1, -3.81997, 0);animation-play-state:paused" ></circle>
<circle cx="1422.8940409799459" cy="252.69160441853683" r="87.27728395056002" fill="#fdf5ee" transform="matrix(1,0,0,1,-4.205999374389648,0)" style="transform:matrix(1, 0, 0, 1, -4.206, 0);animation-play-state:paused" ></circle>
<circle cx="1510.171324930506" cy="271.9561046500819" r="60.40127328840832" fill="#fdf5ee" transform="matrix(1,0,0,1,-4.60075569152832,0)" style="transform:matrix(1, 0, 0, 1, -4.60076, 0);animation-play-state:paused" ></circle>
<circle cx="1570.5725982189142" cy="258.28468222276763" r="66.75757868675021" fill="#fdf5ee" transform="matrix(1,0,0,1,-5,0)" style="transform:matrix(1, 0, 0, 1, -5, 0);animation-play-state:paused" ></circle>
<circle cx="0" cy="366.7130949729998" r="31.072420855833496" fill="#feead9" transform="matrix(1,0,0,1,0,0)" style="transform:matrix(1, 0, 0, 1, 0, 0);animation-play-state:paused" ></circle>
<circle cx="31.072420855833496" cy="367.1889987133769" r="31.969275530166975" fill="#feead9" transform="matrix(1,0,0,1,-0.022117653861641884,0)" style="transform:matrix(1, 0, 0, 1, -0.0221177, 0);animation-play-state:paused" ></circle>
<circle cx="63.04169638600047" cy="332.5523131752832" r="64.86414775654072" fill="#feead9" transform="matrix(1,0,0,1,-0.09182170033454895,0)" style="transform:matrix(1, 0, 0, 1, -0.0918217, 0);animation-play-state:paused" ></circle>
<circle cx="127.90584414254118" cy="317.59351107174285" r="86.39377880275359" fill="#feead9" transform="matrix(1,0,0,1,-0.21463720500469208,0)" style="transform:matrix(1, 0, 0, 1, -0.214637, 0);animation-play-state:paused" ></circle>
<circle cx="214.29962294529477" cy="334.3279909679476" r="80.53107353421235" fill="#feead9" transform="matrix(1,0,0,1,-0.3967548906803131,0)" style="transform:matrix(1, 0, 0, 1, -0.396755, 0);animation-play-state:paused" ></circle>
<circle cx="294.83069647950714" cy="354.6684055295396" r="66.72499721809882" fill="#feead9" transform="matrix(1,0,0,1,-0.6449503302574158,0)" style="transform:matrix(1, 0, 0, 1, -0.64495, 0);animation-play-state:paused" ></circle>
<circle cx="361.555693697606" cy="366.3042596079646" r="59.35689952303949" fill="#feead9" transform="matrix(1,0,0,1,-0.9663257002830505,0)" style="transform:matrix(1, 0, 0, 1, -0.966326, 0);animation-play-state:paused" ></circle>
<circle cx="420.9125932206455" cy="374.99915875241084" r="53.47511328826782" fill="#feead9" transform="matrix(1,0,0,1,-1.3677335977554321,0)" style="transform:matrix(1, 0, 0, 1, -1.36773, 0);animation-play-state:paused" ></circle>
<circle cx="474.3877065089133" cy="381.41933535425585" r="49.22009634353057" fill="#feead9" transform="matrix(1,0,0,1,-1.8546782732009888,0)" style="transform:matrix(1, 0, 0, 1, -1.85468, 0);animation-play-state:paused" ></circle>
<circle cx="523.6078028524439" cy="378.62186925912033" r="66.45876531138431" fill="#feead9" transform="matrix(1,0,0,1,-2.4294803142547607,0)" style="transform:matrix(1, 0, 0, 1, -2.42948, 0);animation-play-state:paused" ></circle>
<circle cx="590.0665681638283" cy="381.95591958348183" r="79.28926745796397" fill="#feead9" transform="matrix(1,0,0,1,-3.0886495113372803,0)" style="transform:matrix(1, 0, 0, 1, -3.08865, 0);animation-play-state:paused" ></circle>
<circle cx="669.3558356217923" cy="390.0197529357089" r="90.70336980950653" fill="#feead9" transform="matrix(1,0,0,1,-3.819972276687622,0)" style="transform:matrix(1, 0, 0, 1, -3.81997, 0);animation-play-state:paused" ></circle>
<circle cx="760.0592054312988" cy="403.0995325632404" r="72.57449547903187" fill="#feead9" transform="matrix(1,0,0,1,-4.60075569152832,0)" style="transform:matrix(1, 0, 0, 1, -4.60076, 0);animation-play-state:paused" ></circle>
<circle cx="832.6337009103306" cy="396.27196216488977" r="76.52268313294176" fill="#feead9" transform="matrix(1,0,0,1,-5.399243354797363,0)" style="transform:matrix(1, 0, 0, 1, -5.39924, 0);animation-play-state:paused" ></circle>
<circle cx="909.1563840432724" cy="387.04813456825343" r="76.85939215467528" fill="#feead9" transform="matrix(1,0,0,1,-6.180027961730957,0)" style="transform:matrix(1, 0, 0, 1, -6.18003, 0);animation-play-state:paused" ></circle>
<circle cx="986.0157761979476" cy="376.63482695991473" r="80.33230920753635" fill="#feead9" transform="matrix(1,0,0,1,-6.911351203918457,0)" style="transform:matrix(1, 0, 0, 1, -6.91135, 0);animation-play-state:paused" ></circle>
<circle cx="1066.348085405484" cy="366.1395333987432" r="81.21620285202259" fill="#feead9" transform="matrix(1,0,0,1,-7.57051944732666,0)" style="transform:matrix(1, 0, 0, 1, -7.57052, 0);animation-play-state:paused" ></circle>
<circle cx="1147.5642882575066" cy="365.665193837477" r="64.63799862902286" fill="#feead9" transform="matrix(1,0,0,1,-8.1453218460083,0)" style="transform:matrix(1, 0, 0, 1, -8.14532, 0);animation-play-state:paused" ></circle>
<circle cx="1212.2022868865295" cy="344.5939532133196" r="85.59134220123359" fill="#feead9" transform="matrix(1,0,0,1,-8.632266998291016,0)" style="transform:matrix(1, 0, 0, 1, -8.63227, 0);animation-play-state:paused" ></circle>
<circle cx="1297.793629087763" cy="376.0722975006426" r="33.73715465466241" fill="#feead9" transform="matrix(1,0,0,1,-9.033674240112305,0)" style="transform:matrix(1, 0, 0, 1, -9.03367, 0);animation-play-state:paused" ></circle>
<circle cx="1331.5307837424255" cy="331.76439795134456" r="82.03772827478812" fill="#feead9" transform="matrix(1,0,0,1,-9.355050086975098,0)" style="transform:matrix(1, 0, 0, 1, -9.35505, 0);animation-play-state:paused" ></circle>
<circle cx="1413.5685120172136" cy="319.896702387928" r="83.37784366764602" fill="#feead9" transform="matrix(1,0,0,1,-9.60324478149414,0)" style="transform:matrix(1, 0, 0, 1, -9.60324, 0);animation-play-state:paused" ></circle>
<circle cx="1496.9463556848596" cy="303.1628124055945" r="88.5329895089288" fill="#feead9" transform="matrix(1,0,0,1,-9.785362243652344,0)" style="transform:matrix(1, 0, 0, 1, -9.78536, 0);animation-play-state:paused" ></circle>
<circle cx="1585.4793451937883" cy="360.7393401605984" r="33.86852825089266" fill="#feead9" transform="matrix(1,0,0,1,-9.908178329467773,0)" style="transform:matrix(1, 0, 0, 1, -9.90818, 0);animation-play-state:paused" ></circle>
<circle cx="1619.347873444681" cy="362.18275784788693" r="31.436074267813847" fill="#feead9" transform="matrix(1,0,0,1,-9.977882385253906,0)" style="transform:matrix(1, 0, 0, 1, -9.97788, 0);animation-play-state:paused" ></circle>
<circle cx="0" cy="365.03029681012856" r="84.14141932489288" fill="#ffdfc4" transform="matrix(1,0,0,1,0,0)" style="transform:matrix(1, 0, 0, 1, 0, 0);animation-play-state:paused" ></circle>
<circle cx="84.14141932489288" cy="406.26921536840746" r="55.90001097373193" fill="#ffdfc4" transform="matrix(1,0,0,1,-0.05069185048341751,0)" style="transform:matrix(1, 0, 0, 1, -0.0506918, 0);animation-play-state:paused" ></circle>
<circle cx="140.04143029862482" cy="396.45751929069843" r="70.87599373811928" fill="#ffdfc4" transform="matrix(1,0,0,1,-0.21463724970817566,0)" style="transform:matrix(1, 0, 0, 1, -0.214637, 0);animation-play-state:paused" ></circle>
<circle cx="210.91742403674408" cy="432.20295662994425" r="38.82747134827341" fill="#ffdfc4" transform="matrix(1,0,0,1,-0.5121520161628723,0)" style="transform:matrix(1, 0, 0, 1, -0.512152, 0);animation-play-state:paused" ></circle>
<circle cx="249.7448953850175" cy="434.1716566165836" r="39.305237100403815" fill="#ffdfc4" transform="matrix(1,0,0,1,-0.9663259983062744,0)" style="transform:matrix(1, 0, 0, 1, -0.966326, 0);animation-play-state:paused" ></circle>
<circle cx="289.0501324854213" cy="416.5813857739654" r="66.03595751845452" fill="#ffdfc4" transform="matrix(1,0,0,1,-1.6002674102783203,0)" style="transform:matrix(1, 0, 0, 1, -1.60027, 0);animation-play-state:paused" ></circle>
<circle cx="355.0860900038758" cy="420.713793677432" r="70.19180353288547" fill="#ffdfc4" transform="matrix(1,0,0,1,-2.429480791091919,0)" style="transform:matrix(1, 0, 0, 1, -2.42948, 0);animation-play-state:paused" ></circle>
<circle cx="425.2778935367613" cy="420.7653996438199" r="84.47119016251888" fill="#ffdfc4" transform="matrix(1,0,0,1,-3.4464619159698486,0)" style="transform:matrix(1, 0, 0, 1, -3.44646, 0);animation-play-state:paused" ></circle>
<circle cx="509.7490836992802" cy="433.02605903789987" r="81.71634981217393" fill="#ffdfc4" transform="matrix(1,0,0,1,-4.600757122039795,0)" style="transform:matrix(1, 0, 0, 1, -4.60076, 0);animation-play-state:paused" ></circle>
<circle cx="591.4654335114542" cy="440.8312512742708" r="91.24558155873582" fill="#ffdfc4" transform="matrix(1,0,0,1,-5.794002532958984,0)" style="transform:matrix(1, 0, 0, 1, -5.794, 0);animation-play-state:paused" ></circle>
<circle cx="682.71101507019" cy="457.5796141649086" r="63.18573188429316" fill="#ffdfc4" transform="matrix(1,0,0,1,-6.911351680755615,0)" style="transform:matrix(1, 0, 0, 1, -6.91135, 0);animation-play-state:paused" ></circle>
<circle cx="745.8967469544832" cy="463.47523570769766" r="73.10458527285614" fill="#ffdfc4" transform="matrix(1,0,0,1,-7.868857383728027,0)" style="transform:matrix(1, 0, 0, 1, -7.86886, 0);animation-play-state:paused" ></circle>
<circle cx="819.0013322273394" cy="458.969033338931" r="88.2294337533404" fill="#ffdfc4" transform="matrix(1,0,0,1,-8.632266998291016,0)" style="transform:matrix(1, 0, 0, 1, -8.63227, 0);animation-play-state:paused" ></circle>
<circle cx="907.2307659806797" cy="446.6819382744215" r="88.79904823683782" fill="#ffdfc4" transform="matrix(1,0,0,1,-9.203954696655273,0)" style="transform:matrix(1, 0, 0, 1, -9.20396, 0);animation-play-state:paused" ></circle>
<circle cx="996.0298142175176" cy="433.11596066374693" r="92.29400658602654" fill="#ffdfc4" transform="matrix(1,0,0,1,-9.603245735168457,0)" style="transform:matrix(1, 0, 0, 1, -9.60325, 0);animation-play-state:paused" ></circle>
<circle cx="1088.323820803544" cy="437.6619691110175" r="56.61876698227787" fill="#ffdfc4" transform="matrix(1,0,0,1,-9.853781700134277,0)" style="transform:matrix(1, 0, 0, 1, -9.85378, 0);animation-play-state:paused" ></circle>
<circle cx="1144.942587785822" cy="447.34539680853317" r="31.67311529500739" fill="#ffdfc4" transform="matrix(1,0,0,1,-9.977882385253906,0)" style="transform:matrix(1, 0, 0, 1, -9.97788, 0);animation-play-state:paused" ></circle>
<circle cx="1176.6157030808295" cy="419.15602953170895" r="73.3700170445378" fill="#ffdfc4" transform="matrix(1,0,0,1,-9.994569778442383,0)" style="transform:matrix(1, 0, 0, 1, -9.99457, 0);animation-play-state:paused" ></circle>
<circle cx="1249.9857201253672" cy="423.55911513731655" r="56.354711722688336" fill="#ffdfc4" transform="matrix(1,0,0,1,-9.908178329467773,0)" style="transform:matrix(1, 0, 0, 1, -9.90818, 0);animation-play-state:paused" ></circle>
<circle cx="1306.3404318480555" cy="389.800641747848" r="90.58875461752748" fill="#ffdfc4" transform="matrix(1,0,0,1,-9.702127456665039,0)" style="transform:matrix(1, 0, 0, 1, -9.70213, 0);animation-play-state:paused" ></circle>
<circle cx="1396.929186465583" cy="435.3784248491325" r="31.160595689142273" fill="#ffdfc4" transform="matrix(1,0,0,1,-9.355048179626465,0)" style="transform:matrix(1, 0, 0, 1, -9.35505, 0);animation-play-state:paused" ></circle>
<circle cx="1428.0897821547253" cy="422.49640447637756" r="42.17956691320534" fill="#ffdfc4" transform="matrix(1,0,0,1,-8.843366622924805,0)" style="transform:matrix(1, 0, 0, 1, -8.84337, 0);animation-play-state:paused" ></circle>
<circle cx="1470.2693490679305" cy="395.1367445362404" r="64.57989880520782" fill="#ffdfc4" transform="matrix(1,0,0,1,-8.145318984985352,0)" style="transform:matrix(1, 0, 0, 1, -8.14532, 0);animation-play-state:paused" ></circle>
<circle cx="1534.8492478731384" cy="392.2086230363544" r="61.58509170833267" fill="#ffdfc4" transform="matrix(1,0,0,1,-7.250951766967773,0)" style="transform:matrix(1, 0, 0, 1, -7.25095, 0);animation-play-state:paused" ></circle>
<circle cx="1596.434339581471" cy="416.6546289327901" r="38.12135250087441" fill="#ffdfc4" transform="matrix(1,0,0,1,-6.180024147033691,0)" style="transform:matrix(1, 0, 0, 1, -6.18002, 0);animation-play-state:paused" ></circle>
<circle cx="0" cy="440.72952691992464" r="72.72539423339613" fill="#ffd4b0" transform="matrix(1,0,0,1,0,0)" style="transform:matrix(1, 0, 0, 1, 0, 0);animation-play-state:paused" ></circle>
<circle cx="72.72539423339613" cy="485.0257960047885" r="39.55773780434601" fill="#ffd4b0" transform="matrix(1,0,0,1,-0.09182170033454895,0)" style="transform:matrix(1, 0, 0, 1, -0.0918217, 0);animation-play-state:paused" ></circle>
<circle cx="112.28313203774215" cy="469.2989109714019" r="57.29408348919459" fill="#ffd4b0" transform="matrix(1,0,0,1,-0.3967548906803131,0)" style="transform:matrix(1, 0, 0, 1, -0.396755, 0);animation-play-state:paused" ></circle>
<circle cx="169.57721552693675" cy="469.3610031134653" r="62.71311684836342" fill="#ffd4b0" transform="matrix(1,0,0,1,-0.9663257002830505,0)" style="transform:matrix(1, 0, 0, 1, -0.966326, 0);animation-play-state:paused" ></circle>
<circle cx="232.29033237530018" cy="468.8446399052157" r="70.67154607929348" fill="#ffd4b0" transform="matrix(1,0,0,1,-1.8546782732009888,0)" style="transform:matrix(1, 0, 0, 1, -1.85468, 0);animation-play-state:paused" ></circle>
<circle cx="302.96187845459366" cy="475.6989615499444" r="71.9783240496496" fill="#ffd4b0" transform="matrix(1,0,0,1,-3.0886495113372803,0)" style="transform:matrix(1, 0, 0, 1, -3.08865, 0);animation-play-state:paused" ></circle>
<circle cx="374.94020250424325" cy="481.27120420689073" r="76.08620748834734" fill="#ffd4b0" transform="matrix(1,0,0,1,-4.60075569152832,0)" style="transform:matrix(1, 0, 0, 1, -4.60076, 0);animation-play-state:paused" ></circle>
<circle cx="451.0264099925906" cy="511.64941326464736" r="33.01339872000406" fill="#ffd4b0" transform="matrix(1,0,0,1,-6.180027961730957,0)" style="transform:matrix(1, 0, 0, 1, -6.18003, 0);animation-play-state:paused" ></circle>
<circle cx="484.03980871259466" cy="508.8116113494262" r="43.24750128069075" fill="#ffd4b0" transform="matrix(1,0,0,1,-7.57051944732666,0)" style="transform:matrix(1, 0, 0, 1, -7.57052, 0);animation-play-state:paused" ></circle>
<circle cx="527.2873099932854" cy="513.474512615264" r="38.61994947574959" fill="#ffd4b0" transform="matrix(1,0,0,1,-8.632266998291016,0)" style="transform:matrix(1, 0, 0, 1, -8.63227, 0);animation-play-state:paused" ></circle>
<circle cx="565.9072594690349" cy="514.5732452821813" r="42.520691227339135" fill="#ffd4b0" transform="matrix(1,0,0,1,-9.355050086975098,0)" style="transform:matrix(1, 0, 0, 1, -9.35505, 0);animation-play-state:paused" ></circle>
<circle cx="608.4279506963741" cy="506.71764771733456" r="85.3577147147434" fill="#ffd4b0" transform="matrix(1,0,0,1,-9.785362243652344,0)" style="transform:matrix(1, 0, 0, 1, -9.78536, 0);animation-play-state:paused" ></circle>
<circle cx="693.7856654111174" cy="517.6985103554752" r="88.83665681324534" fill="#ffd4b0" transform="matrix(1,0,0,1,-9.977882385253906,0)" style="transform:matrix(1, 0, 0, 1, -9.97788, 0);animation-play-state:paused" ></circle>
<circle cx="782.6223222243627" cy="527.2734739741686" r="31.7990979406406" fill="#ffd4b0" transform="matrix(1,0,0,1,-9.977882385253906,0)" style="transform:matrix(1, 0, 0, 1, -9.97788, 0);animation-play-state:paused" ></circle>
<circle cx="814.4214201650034" cy="525.0064780863497" r="41.27090506766719" fill="#ffd4b0" transform="matrix(1,0,0,1,-9.78536319732666,0)" style="transform:matrix(1, 0, 0, 1, -9.78536, 0);animation-play-state:paused" ></circle>
<circle cx="855.6923252326706" cy="522.4810254397255" r="40.27882382185659" fill="#ffd4b0" transform="matrix(1,0,0,1,-9.355049133300781,0)" style="transform:matrix(1, 0, 0, 1, -9.35505, 0);animation-play-state:paused" ></circle>
<circle cx="895.9711490545271" cy="520.9045375183407" r="35.485310726771864" fill="#ffd4b0" transform="matrix(1,0,0,1,-8.632266998291016,0)" style="transform:matrix(1, 0, 0, 1, -8.63227, 0);animation-play-state:paused" ></circle>
<circle cx="931.456459781299" cy="518.93975753378" r="35.474616213633226" fill="#ffd4b0" transform="matrix(1,0,0,1,-7.57051944732666,0)" style="transform:matrix(1, 0, 0, 1, -7.57052, 0);animation-play-state:paused" ></circle>
<circle cx="966.9310759949323" cy="508.238035190667" r="63.578088112765826" fill="#ffd4b0" transform="matrix(1,0,0,1,-6.180026531219482,0)" style="transform:matrix(1, 0, 0, 1, -6.18003, 0);animation-play-state:paused" ></circle>
<circle cx="1030.509164107698" cy="510.34011346144155" r="43.05498218736644" fill="#ffd4b0" transform="matrix(1,0,0,1,-4.600756645202637,0)" style="transform:matrix(1, 0, 0, 1, -4.60076, 0);animation-play-state:paused" ></circle>
<circle cx="1073.5641462950646" cy="496.8392859522276" r="65.26569701445514" fill="#ffd4b0" transform="matrix(1,0,0,1,-3.088648796081543,0)" style="transform:matrix(1, 0, 0, 1, -3.08865, 0);animation-play-state:paused" ></circle>
<circle cx="1138.8298433095197" cy="486.7132543160756" r="71.25509910931511" fill="#ffd4b0" transform="matrix(1,0,0,1,-1.8546791076660156,0)" style="transform:matrix(1, 0, 0, 1, -1.85468, 0);animation-play-state:paused" ></circle>
<circle cx="1210.0849424188348" cy="486.551327310078" r="60.00464611259711" fill="#ffd4b0" transform="matrix(1,0,0,1,-0.9663257598876953,0)" style="transform:matrix(1, 0, 0, 1, -0.966326, 0);animation-play-state:paused" ></circle>
<circle cx="1270.089588531432" cy="499.8215372673941" r="35.91832326500992" fill="#ffd4b0" transform="matrix(1,0,0,1,-0.3967552185058594,0)" style="transform:matrix(1, 0, 0, 1, -0.396755, 0);animation-play-state:paused" ></circle>
<circle cx="1306.007911796442" cy="487.90592216886324" r="47.694855873487946" fill="#ffd4b0" transform="matrix(1,0,0,1,-0.09182167053222656,0)" style="transform:matrix(1, 0, 0, 1, -0.0918217, 0);animation-play-state:paused" ></circle>
<circle cx="1353.70276766993" cy="458.991182728948" r="75.40623929296954" fill="#ffd4b0" transform="matrix(1,0,0,1,0,0)" style="transform:matrix(1, 0, 0, 1, 0, 0);animation-play-state:paused" ></circle>
<circle cx="1429.1090069628995" cy="477.9111478865639" r="48.489530493415415" fill="#ffd4b0" transform="matrix(1,0,0,1,-0.09182170033454895,0)" style="transform:matrix(1, 0, 0, 1, -0.0918217, 0);animation-play-state:paused" ></circle>
<circle cx="1477.598537456315" cy="443.7626959135157" r="75.97517718766284" fill="#ffd4b0" transform="matrix(1,0,0,1,-0.3967548906803131,0)" style="transform:matrix(1, 0, 0, 1, -0.396755, 0);animation-play-state:paused" ></circle>
<circle cx="1553.5737146439778" cy="419.85219780128455" r="88.10706381456" fill="#ffd4b0" transform="matrix(1,0,0,1,-0.9663257002830505,0)" style="transform:matrix(1, 0, 0, 1, -0.966326, 0);animation-play-state:paused" ></circle>
<circle cx="0" cy="550.2013777608756" r="33.16551853260363" fill="#ffc99c" transform="matrix(1,0,0,1,0,0)" style="transform:matrix(1, 0, 0, 1, 0, 0);animation-play-state:paused" ></circle>
<circle cx="33.16551853260363" cy="508.26433273069574" r="71.1872242955922" fill="#ffc99c" transform="matrix(1,0,0,1,-0.14621886610984802,0)" style="transform:matrix(1, 0, 0, 1, -0.146219, 0);animation-play-state:paused" ></circle>
<circle cx="104.35274282819583" cy="521.2428908975476" r="66.30713733843956" fill="#ffc99c" transform="matrix(1,0,0,1,-0.6449503302574158,0)" style="transform:matrix(1, 0, 0, 1, -0.64495, 0);animation-play-state:paused" ></circle>
<circle cx="170.6598801666354" cy="518.7521336639536" r="76.33613236591236" fill="#ffc99c" transform="matrix(1,0,0,1,-1.600266933441162,0)" style="transform:matrix(1, 0, 0, 1, -1.60027, 0);animation-play-state:paused" ></circle>
<circle cx="246.99601253254775" cy="529.7313869108798" r="74.03381414512982" fill="#ffc99c" transform="matrix(1,0,0,1,-3.0886495113372803,0)" style="transform:matrix(1, 0, 0, 1, -3.08865, 0);animation-play-state:paused" ></circle>
<circle cx="321.0298266776776" cy="537.2759471672624" r="75.49361417594805" fill="#ffc99c" transform="matrix(1,0,0,1,-5,0)" style="transform:matrix(1, 0, 0, 1, -5, 0);animation-play-state:paused" ></circle>
<circle cx="396.52344085362563" cy="552.1906809039584" r="65.13994927990012" fill="#ffc99c" transform="matrix(1,0,0,1,-6.911351203918457,0)" style="transform:matrix(1, 0, 0, 1, -6.91135, 0);animation-play-state:paused" ></circle>
<circle cx="461.66339013352575" cy="552.220807676033" r="78.92848033370177" fill="#ffc99c" transform="matrix(1,0,0,1,-8.39973258972168,0)" style="transform:matrix(1, 0, 0, 1, -8.39973, 0);animation-play-state:paused" ></circle>
<circle cx="540.5918704672275" cy="557.4882479638363" r="91.49858162896548" fill="#ffc99c" transform="matrix(1,0,0,1,-9.355050086975098,0)" style="transform:matrix(1, 0, 0, 1, -9.35505, 0);animation-play-state:paused" ></circle>
<circle cx="632.090452096193" cy="575.0971794258904" r="70.17759469099782" fill="#ffc99c" transform="matrix(1,0,0,1,-9.853780746459961,0)" style="transform:matrix(1, 0, 0, 1, -9.85378, 0);animation-play-state:paused" ></circle>
<circle cx="702.2680467871908" cy="580.7623923355673" r="89.94208472851058" fill="#ffc99c" transform="matrix(1,0,0,1,-10,0)" style="transform:matrix(1, 0, 0, 1, -10, 0);animation-play-state:paused" ></circle>
<circle cx="792.2101315157014" cy="586.7694578705771" r="85.40007151509307" fill="#ffc99c" transform="matrix(1,0,0,1,-9.853780746459961,0)" style="transform:matrix(1, 0, 0, 1, -9.85378, 0);animation-play-state:paused" ></circle>
<circle cx="877.6102030307944" cy="581.5989093059061" r="49.052897408734474" fill="#ffc99c" transform="matrix(1,0,0,1,-9.355049133300781,0)" style="transform:matrix(1, 0, 0, 1, -9.35505, 0);animation-play-state:paused" ></circle>
<circle cx="926.6631004395289" cy="575.0444452492005" r="60.326282632802126" fill="#ffc99c" transform="matrix(1,0,0,1,-8.399733543395996,0)" style="transform:matrix(1, 0, 0, 1, -8.39973, 0);animation-play-state:paused" ></circle>
<circle cx="986.989383072331" cy="560.6240513307334" r="85.85168323946029" fill="#ffc99c" transform="matrix(1,0,0,1,-6.911350727081299,0)" style="transform:matrix(1, 0, 0, 1, -6.91135, 0);animation-play-state:paused" ></circle>
<circle cx="1072.8410663117913" cy="549.4257910981095" r="85.18371232388496" fill="#ffc99c" transform="matrix(1,0,0,1,-5,0)" style="transform:matrix(1, 0, 0, 1, -5, 0);animation-play-state:paused" ></circle>
<circle cx="1158.0247786356763" cy="550.984277866913" r="64.02173280508502" fill="#ffc99c" transform="matrix(1,0,0,1,-3.088648796081543,0)" style="transform:matrix(1, 0, 0, 1, -3.08865, 0);animation-play-state:paused" ></circle>
<circle cx="1222.0465114407614" cy="565.5642944716132" r="34.44328090649349" fill="#ffc99c" transform="matrix(1,0,0,1,-1.600266456604004,0)" style="transform:matrix(1, 0, 0, 1, -1.60027, 0);animation-play-state:paused" ></circle>
<circle cx="1256.489792347255" cy="519.4656011377336" r="92.41137886410557" fill="#ffc99c" transform="matrix(1,0,0,1,-0.6449508666992188,0)" style="transform:matrix(1, 0, 0, 1, -0.644951, 0);animation-play-state:paused" ></circle>
<circle cx="1348.9011712113604" cy="532.8877498204032" r="62.92264833744431" fill="#ffc99c" transform="matrix(1,0,0,1,-0.14621925354003906,0)" style="transform:matrix(1, 0, 0, 1, -0.146219, 0);animation-play-state:paused" ></circle>
<circle cx="1411.8238195488047" cy="557.5671793866911" r="32.240194541208936" fill="#ffc99c" transform="matrix(1,0,0,1,0,0)" style="transform:matrix(1, 0, 0, 1, 0, 0);animation-play-state:paused" ></circle>
<circle cx="1444.0640140900136" cy="534.4202249008764" r="52.614923028136545" fill="#ffc99c" transform="matrix(1,0,0,1,-0.14621886610984802,0)" style="transform:matrix(1, 0, 0, 1, -0.146219, 0);animation-play-state:paused" ></circle>
<circle cx="1496.67893711815" cy="544.7819984160133" r="39.715050812644996" fill="#ffc99c" transform="matrix(1,0,0,1,-0.6449503302574158,0)" style="transform:matrix(1, 0, 0, 1, -0.64495, 0);animation-play-state:paused" ></circle>
<circle cx="1536.393987930795" cy="510.1348429030156" r="66.5201723919182" fill="#ffc99c" transform="matrix(1,0,0,1,-1.600266933441162,0)" style="transform:matrix(1, 0, 0, 1, -1.60027, 0);animation-play-state:paused" ></circle>
<circle cx="1602.914160322713" cy="541.014523862012" r="37.54961434142477" fill="#ffc99c" transform="matrix(1,0,0,1,-3.0886495113372803,0)" style="transform:matrix(1, 0, 0, 1, -3.08865, 0);animation-play-state:paused" ></circle>
<circle cx="0" cy="590.3948489450254" r="51.33762587914546" fill="#ffbd88" transform="matrix(1,0,0,1,0,0)" style="transform:matrix(1, 0, 0, 1, 0, 0);animation-play-state:paused" ></circle>
<circle cx="51.33762587914546" cy="552.5582033501872" r="88.80436891074706" fill="#ffbd88" transform="matrix(1,0,0,1,-0.2146373838186264,0)" style="transform:matrix(1, 0, 0, 1, -0.214637, 0);animation-play-state:paused" ></circle>
<circle cx="140.14199478989252" cy="619.3347982813308" r="33.296906189724155" fill="#ffbd88" transform="matrix(1,0,0,1,-0.9663266539573669,0)" style="transform:matrix(1, 0, 0, 1, -0.966327, 0);animation-play-state:paused" ></circle>
<circle cx="173.43890097961668" cy="590.5830652261318" r="66.11067949120584" fill="#ffbd88" transform="matrix(1,0,0,1,-2.4294822216033936,0)" style="transform:matrix(1, 0, 0, 1, -2.42948, 0);animation-play-state:paused" ></circle>
<circle cx="239.54958047082252" cy="625.0084488636551" r="32.68914563953144" fill="#ffbd88" transform="matrix(1,0,0,1,-4.600759983062744,0)" style="transform:matrix(1, 0, 0, 1, -4.60076, 0);animation-play-state:paused" ></circle>
<circle cx="272.238726110354" cy="584.763664041315" r="86.79833879710617" fill="#ffbd88" transform="matrix(1,0,0,1,-6.911355018615723,0)" style="transform:matrix(1, 0, 0, 1, -6.91135, 0);animation-play-state:paused" ></circle>
<circle cx="359.03706490746015" cy="617.0179350550201" r="54.74462266298307" fill="#ffbd88" transform="matrix(1,0,0,1,-8.632269859313965,0)" style="transform:matrix(1, 0, 0, 1, -8.63227, 0);animation-play-state:paused" ></circle>
<circle cx="413.78168757044324" cy="628.3584139795381" r="42.71550770290735" fill="#ffbd88" transform="matrix(1,0,0,1,-9.603246688842773,0)" style="transform:matrix(1, 0, 0, 1, -9.60325, 0);animation-play-state:paused" ></circle>
<circle cx="456.4971952733506" cy="630.2835446327632" r="44.61767670832952" fill="#ffbd88" transform="matrix(1,0,0,1,-9.977882385253906,0)" style="transform:matrix(1, 0, 0, 1, -9.97788, 0);animation-play-state:paused" ></circle>
<circle cx="501.1148719816801" cy="627.5360295144347" r="58.66546864944471" fill="#ffbd88" transform="matrix(1,0,0,1,-9.908177375793457,0)" style="transform:matrix(1, 0, 0, 1, -9.90818, 0);animation-play-state:paused" ></circle>
<circle cx="559.7803406311248" cy="631.7518770699502" r="62.23619188750309" fill="#ffbd88" transform="matrix(1,0,0,1,-9.355046272277832,0)" style="transform:matrix(1, 0, 0, 1, -9.35505, 0);animation-play-state:paused" ></circle>
<circle cx="622.0165325186279" cy="636.8158956236534" r="66.56799546223824" fill="#ffbd88" transform="matrix(1,0,0,1,-8.14531421661377,0)" style="transform:matrix(1, 0, 0, 1, -8.14531, 0);animation-play-state:paused" ></circle>
<circle cx="688.5845279808661" cy="646.5282733802217" r="44.09600481647253" fill="#ffbd88" transform="matrix(1,0,0,1,-6.180017471313477,0)" style="transform:matrix(1, 0, 0, 1, -6.18002, 0);animation-play-state:paused" ></circle>
<circle cx="732.6805327973386" cy="648.4045165159367" r="65.15130640552475" fill="#ffbd88" transform="matrix(1,0,0,1,-3.8199596405029297,0)" style="transform:matrix(1, 0, 0, 1, -3.81996, 0);animation-play-state:paused" ></circle>
<circle cx="797.8318392028634" cy="648.6707096592665" r="71.42522469298082" fill="#ffbd88" transform="matrix(1,0,0,1,-1.8546695709228516,0)" style="transform:matrix(1, 0, 0, 1, -1.85467, 0);animation-play-state:paused" ></circle>
<circle cx="869.2570638958442" cy="641.8478271086022" r="64.16728276042026" fill="#ffbd88" transform="matrix(1,0,0,1,-0.6449451446533203,0)" style="transform:matrix(1, 0, 0, 1, -0.644945, 0);animation-play-state:paused" ></circle>
<circle cx="933.4243466562644" cy="628.7590727856657" r="89.91538257715534" fill="#ffbd88" transform="matrix(1,0,0,1,-0.09181976318359375,0)" style="transform:matrix(1, 0, 0, 1, -0.0918198, 0);animation-play-state:paused" ></circle>
<circle cx="1023.3397292334198" cy="634.8237537808757" r="43.05165362727566" fill="#ffbd88" transform="matrix(1,0,0,1,-0.022118574008345604,0)" style="transform:matrix(1, 0, 0, 1, -0.0221186, 0);animation-play-state:paused" ></circle>
<circle cx="1066.3913828606956" cy="628.2131840433493" r="51.01877294949763" fill="#ffbd88" transform="matrix(1,0,0,1,-0.3967595100402832,0)" style="transform:matrix(1, 0, 0, 1, -0.39676, 0);animation-play-state:paused" ></circle>
<circle cx="1117.4101558101931" cy="619.6982010571645" r="59.16585702976771" fill="#ffbd88" transform="matrix(1,0,0,1,-1.367743968963623,0)" style="transform:matrix(1, 0, 0, 1, -1.36774, 0);animation-play-state:paused" ></circle>
<circle cx="1176.5760128399609" cy="630.2639100664461" r="34.047758850991215" fill="#ffbd88" transform="matrix(1,0,0,1,-3.0886662006378174,0)" style="transform:matrix(1, 0, 0, 1, -3.08867, 0);animation-play-state:paused" ></circle>
<circle cx="1210.623771690952" cy="605.0703580225313" r="67.85666018532532" fill="#ffbd88" transform="matrix(1,0,0,1,-5.399263381958008,0)" style="transform:matrix(1, 0, 0, 1, -5.39926, 0);animation-play-state:paused" ></circle>
<circle cx="1278.4804318762774" cy="597.7705547439942" r="67.98859034866081" fill="#ffbd88" transform="matrix(1,0,0,1,-7.570536136627197,0)" style="transform:matrix(1, 0, 0, 1, -7.57054, 0);animation-play-state:paused" ></circle>
<circle cx="1346.4690222249383" cy="604.1839656694486" r="52.90216207922224" fill="#ffbd88" transform="matrix(1,0,0,1,-9.033683776855469,0)" style="transform:matrix(1, 0, 0, 1, -9.03368, 0);animation-play-state:paused" ></circle>
<circle cx="1399.3711843041606" cy="573.7879773534028" r="79.28092972597257" fill="#ffbd88" transform="matrix(1,0,0,1,-9.785367012023926,0)" style="transform:matrix(1, 0, 0, 1, -9.78537, 0);animation-play-state:paused" ></circle>
<circle cx="1478.6521140301331" cy="598.8207754483725" r="47.892214827912916" fill="#ffbd88" transform="matrix(1,0,0,1,-10,0)" style="transform:matrix(1, 0, 0, 1, -10, 0);animation-play-state:paused" ></circle>
<circle cx="1526.5443288580461" cy="600.5350458349347" r="43.42207754058065" fill="#ffbd88" transform="matrix(1,0,0,1,-9.785358428955078,0)" style="transform:matrix(1, 0, 0, 1, -9.78536, 0);animation-play-state:paused" ></circle>
<circle cx="1569.9664063986268" cy="556.0579900693883" r="76.5654095554103" fill="#ffbd88" transform="matrix(1,0,0,1,-9.033662796020508,0)" style="transform:matrix(1, 0, 0, 1, -9.03366, 0);animation-play-state:paused" ></circle>
<circle cx="0" cy="633.142660356912" r="67.38111636924006" fill="#ffb275" transform="matrix(1,0,0,1,0,0)" style="transform:matrix(1, 0, 0, 1, 0, 0);animation-play-state:paused" ></circle>
<circle cx="67.38111636924006" cy="667.3964027362914" r="42.57136503973046" fill="#ffb275" transform="matrix(1,0,0,1,-0.297871857881546,0)" style="transform:matrix(1, 0, 0, 1, -0.297872, 0);animation-play-state:paused" ></circle>
<circle cx="109.95248140897053" cy="641.9922120522008" r="70.03291249432229" fill="#ffb275" transform="matrix(1,0,0,1,-1.3677345514297485,0)" style="transform:matrix(1, 0, 0, 1, -1.36773, 0);animation-play-state:paused" ></circle>
<circle cx="179.98539390329282" cy="646.043238456323" r="73.9647058712693" fill="#ffb275" transform="matrix(1,0,0,1,-3.4464633464813232,0)" style="transform:matrix(1, 0, 0, 1, -3.44646, 0);animation-play-state:paused" ></circle>
<circle cx="253.95009977456212" cy="651.8340747485291" r="77.39752919608196" fill="#ffb275" transform="matrix(1,0,0,1,-6.1800312995910645,0)" style="transform:matrix(1, 0, 0, 1, -6.18003, 0);animation-play-state:paused" ></circle>
<circle cx="331.3476289706441" cy="680.7960696616556" r="48.666895742361135" fill="#ffb275" transform="matrix(1,0,0,1,-8.399735450744629,0)" style="transform:matrix(1, 0, 0, 1, -8.39974, 0);animation-play-state:paused" ></circle>
<circle cx="380.01452471300524" cy="667.4578356152763" r="76.77345442942057" fill="#ffb275" transform="matrix(1,0,0,1,-9.603246688842773,0)" style="transform:matrix(1, 0, 0, 1, -9.60325, 0);animation-play-state:paused" ></circle>
<circle cx="456.7879791424258" cy="698.4336132777717" r="32.01189810976311" fill="#ffb275" transform="matrix(1,0,0,1,-9.9945707321167,0)" style="transform:matrix(1, 0, 0, 1, -9.99457, 0);animation-play-state:paused" ></circle>
<circle cx="488.79987725218894" cy="700.2821702241404" r="31.444868183243038" fill="#ffb275" transform="matrix(1,0,0,1,-9.785361289978027,0)" style="transform:matrix(1, 0, 0, 1, -9.78536, 0);animation-play-state:paused" ></circle>
<circle cx="520.2447454354319" cy="683.3577217049796" r="79.15496340644584" fill="#ffb275" transform="matrix(1,0,0,1,-8.843363761901855,0)" style="transform:matrix(1, 0, 0, 1, -8.84336, 0);animation-play-state:paused" ></circle>
<circle cx="599.3997088418778" cy="694.389238891584" r="74.44166924726953" fill="#ffb275" transform="matrix(1,0,0,1,-6.911342620849609,0)" style="transform:matrix(1, 0, 0, 1, -6.91134, 0);animation-play-state:paused" ></circle>
<circle cx="673.8413780891473" cy="704.0115231095965" r="67.89208550556954" fill="#ffb275" transform="matrix(1,0,0,1,-4.205990791320801,0)" style="transform:matrix(1, 0, 0, 1, -4.20599, 0);animation-play-state:paused" ></circle>
<circle cx="741.7334635947168" cy="711.5523257628844" r="59.639058899251395" fill="#ffb275" transform="matrix(1,0,0,1,-1.8546714782714844,0)" style="transform:matrix(1, 0, 0, 1, -1.85467, 0);animation-play-state:paused" ></circle>
<circle cx="801.3725224939682" cy="710.1231028353727" r="74.34901529574032" fill="#ffb275" transform="matrix(1,0,0,1,-0.5121488571166992,0)" style="transform:matrix(1, 0, 0, 1, -0.512149, 0);animation-play-state:paused" ></circle>
<circle cx="875.7215377897085" cy="705.5975868184659" r="49.920791575402355" fill="#ffb275" transform="matrix(1,0,0,1,-0.022116661071777344,0)" style="transform:matrix(1, 0, 0, 1, -0.0221167, 0);animation-play-state:paused" ></circle>
<circle cx="925.6423293651109" cy="703.4985120091832" r="42.634185508364276" fill="#ffb275" transform="matrix(1,0,0,1,-0.14622078835964203,0)" style="transform:matrix(1, 0, 0, 1, -0.146221, 0);animation-play-state:paused" ></circle>
<circle cx="968.2765148734751" cy="690.878300987663" r="73.88728217706542" fill="#ffb275" transform="matrix(1,0,0,1,-0.9663317203521729,0)" style="transform:matrix(1, 0, 0, 1, -0.966332, 0);animation-play-state:paused" ></circle>
<circle cx="1042.1637970505406" cy="688.5846944049993" r="59.32875075333884" fill="#ffb275" transform="matrix(1,0,0,1,-2.749058246612549,0)" style="transform:matrix(1, 0, 0, 1, -2.74906, 0);animation-play-state:paused" ></circle>
<circle cx="1101.4925478038795" cy="686.9821705331678" r="51.849467019998585" fill="#ffb275" transform="matrix(1,0,0,1,-5.399258613586426,0)" style="transform:matrix(1, 0, 0, 1, -5.39926, 0);animation-play-state:paused" ></circle>
<circle cx="1153.3420148238781" cy="672.3746836491049" r="69.13391594931296" fill="#ffb275" transform="matrix(1,0,0,1,-7.868867874145508,0)" style="transform:matrix(1, 0, 0, 1, -7.86887, 0);animation-play-state:paused" ></circle>
<circle cx="1222.475930773191" cy="681.3212217384222" r="46.018758467205345" fill="#ffb275" transform="matrix(1,0,0,1,-9.355055809020996,0)" style="transform:matrix(1, 0, 0, 1, -9.35506, 0);animation-play-state:paused" ></circle>
<circle cx="1268.4946892403964" cy="650.2364498567952" r="81.53667355309327" fill="#ffb275" transform="matrix(1,0,0,1,-9.949310302734375,0)" style="transform:matrix(1, 0, 0, 1, -9.94931, 0);animation-play-state:paused" ></circle>
<circle cx="1350.0313627934897" cy="639.8312785829548" r="81.5557111546083" fill="#ffb275" transform="matrix(1,0,0,1,-9.90817642211914,0)" style="transform:matrix(1, 0, 0, 1, -9.90818, 0);animation-play-state:paused" ></circle>
<circle cx="1431.5870739480981" cy="659.853161531609" r="52.222199588053925" fill="#ffb275" transform="matrix(1,0,0,1,-9.20394515991211,0)" style="transform:matrix(1, 0, 0, 1, -9.20395, 0);animation-play-state:paused" ></circle>
<circle cx="1483.809273536152" cy="623.5864584939586" r="80.83810688566614" fill="#ffb275" transform="matrix(1,0,0,1,-7.570505142211914,0)" style="transform:matrix(1, 0, 0, 1, -7.5705, 0);animation-play-state:paused" ></circle>
<circle cx="1564.647380421818" cy="628.5301822550003" r="68.66360789115532" fill="#ffb275" transform="matrix(1,0,0,1,-4.999978542327881,0)" style="transform:matrix(1, 0, 0, 1, -4.99998, 0);animation-play-state:paused" ></circle>
<circle cx="0" cy="711.1714241767681" r="54.02381318602657" fill="#fea662" transform="matrix(1,0,0,1,0,0)" style="transform:matrix(1, 0, 0, 1, 0, 0);animation-play-state:paused" ></circle>
<circle cx="54.02381318602657" cy="709.3625744350228" r="59.733017920242396" fill="#fea662" transform="matrix(1,0,0,1,-0.3967548906803131,0)" style="transform:matrix(1, 0, 0, 1, -0.396755, 0);animation-play-state:paused" ></circle>
<circle cx="113.75683110626898" cy="685.8448093469706" r="88.19247148656272" fill="#fea662" transform="matrix(1,0,0,1,-1.8546782732009888,0)" style="transform:matrix(1, 0, 0, 1, -1.85468, 0);animation-play-state:paused" ></circle>
<circle cx="201.9493025928317" cy="728.0835144315986" r="54.176332445568924" fill="#fea662" transform="matrix(1,0,0,1,-4.60075569152832,0)" style="transform:matrix(1, 0, 0, 1, -4.60076, 0);animation-play-state:paused" ></circle>
<circle cx="256.1256350384006" cy="742.3831086530772" r="42.031427894703384" fill="#fea662" transform="matrix(1,0,0,1,-7.57051944732666,0)" style="transform:matrix(1, 0, 0, 1, -7.57052, 0);animation-play-state:paused" ></circle>
<circle cx="298.157062933104" cy="748.2757857534464" r="37.764741614638844" fill="#fea662" transform="matrix(1,0,0,1,-9.355050086975098,0)" style="transform:matrix(1, 0, 0, 1, -9.35505, 0);animation-play-state:paused" ></circle>
<circle cx="335.92180454774285" cy="741.5305228270244" r="51.05665044637044" fill="#fea662" transform="matrix(1,0,0,1,-9.977882385253906,0)" style="transform:matrix(1, 0, 0, 1, -9.97788, 0);animation-play-state:paused" ></circle>
<circle cx="386.9784549941133" cy="722.6887875648878" r="89.54657920445075" fill="#fea662" transform="matrix(1,0,0,1,-9.78536319732666,0)" style="transform:matrix(1, 0, 0, 1, -9.78536, 0);animation-play-state:paused" ></circle>
<circle cx="476.5250341985641" cy="737.093291833641" r="85.42858271894524" fill="#fea662" transform="matrix(1,0,0,1,-8.632266998291016,0)" style="transform:matrix(1, 0, 0, 1, -8.63227, 0);animation-play-state:paused" ></circle>
<circle cx="561.9536169175093" cy="754.752071163462" r="65.99812261659581" fill="#fea662" transform="matrix(1,0,0,1,-6.180026531219482,0)" style="transform:matrix(1, 0, 0, 1, -6.18003, 0);animation-play-state:paused" ></circle>
<circle cx="627.9517395341051" cy="762.4938887100536" r="61.7209467422886" fill="#fea662" transform="matrix(1,0,0,1,-3.088648796081543,0)" style="transform:matrix(1, 0, 0, 1, -3.08865, 0);animation-play-state:paused" ></circle>
<circle cx="689.6726862763936" cy="771.6080193553983" r="35.88617404222232" fill="#fea662" transform="matrix(1,0,0,1,-0.9663257598876953,0)" style="transform:matrix(1, 0, 0, 1, -0.966326, 0);animation-play-state:paused" ></circle>
<circle cx="725.558860318616" cy="770.9890620599782" r="75.5634816993534" fill="#fea662" transform="matrix(1,0,0,1,-0.09182167053222656,0)" style="transform:matrix(1, 0, 0, 1, -0.0918217, 0);animation-play-state:paused" ></circle>
<circle cx="801.1223420179693" cy="773.4022063570658" r="50.195361504808254" fill="#fea662" transform="matrix(1,0,0,1,-0.09182170033454895,0)" style="transform:matrix(1, 0, 0, 1, -0.0918217, 0);animation-play-state:paused" ></circle>
<circle cx="851.3177035227776" cy="766.678841465962" r="71.59992666088574" fill="#fea662" transform="matrix(1,0,0,1,-0.9663257002830505,0)" style="transform:matrix(1, 0, 0, 1, -0.966326, 0);animation-play-state:paused" ></circle>
<circle cx="922.9176301836634" cy="764.9465416812812" r="45.664352827971406" fill="#fea662" transform="matrix(1,0,0,1,-3.0886495113372803,0)" style="transform:matrix(1, 0, 0, 1, -3.08865, 0);animation-play-state:paused" ></circle>
<circle cx="968.5819830116347" cy="765.9508697878744" r="32.063913414333676" fill="#fea662" transform="matrix(1,0,0,1,-6.180027961730957,0)" style="transform:matrix(1, 0, 0, 1, -6.18003, 0);animation-play-state:paused" ></circle>
<circle cx="1000.6458964259684" cy="746.4718336537253" r="81.23086094333678" fill="#fea662" transform="matrix(1,0,0,1,-8.632266998291016,0)" style="transform:matrix(1, 0, 0, 1, -8.63227, 0);animation-play-state:paused" ></circle>
<circle cx="1081.8767573693053" cy="748.1347626030611" r="56.817688839119285" fill="#fea662" transform="matrix(1,0,0,1,-9.785362243652344,0)" style="transform:matrix(1, 0, 0, 1, -9.78536, 0);animation-play-state:paused" ></circle>
<circle cx="1138.6944462084246" cy="755.818167053913" r="34.84371891083953" fill="#fea662" transform="matrix(1,0,0,1,-9.977882385253906,0)" style="transform:matrix(1, 0, 0, 1, -9.97788, 0);animation-play-state:paused" ></circle>
<circle cx="1173.538165119264" cy="735.0793407774413" r="64.57893277377636" fill="#fea662" transform="matrix(1,0,0,1,-9.355049133300781,0)" style="transform:matrix(1, 0, 0, 1, -9.35505, 0);animation-play-state:paused" ></circle>
<circle cx="1238.1170978930404" cy="746.2753414668132" r="40.46604887697101" fill="#fea662" transform="matrix(1,0,0,1,-7.57051944732666,0)" style="transform:matrix(1, 0, 0, 1, -7.57052, 0);animation-play-state:paused" ></circle>
<circle cx="1278.5831467700114" cy="738.7894140373395" r="46.642305306700514" fill="#fea662" transform="matrix(1,0,0,1,-4.600756645202637,0)" style="transform:matrix(1, 0, 0, 1, -4.60076, 0);animation-play-state:paused" ></circle>
<circle cx="1325.225452076712" cy="698.3437356047532" r="89.1919222780152" fill="#fea662" transform="matrix(1,0,0,1,-1.8546791076660156,0)" style="transform:matrix(1, 0, 0, 1, -1.85468, 0);animation-play-state:paused" ></circle>
<circle cx="1414.4173743547271" cy="683.8118772424547" r="91.27291577477311" fill="#fea662" transform="matrix(1,0,0,1,-0.3967552185058594,0)" style="transform:matrix(1, 0, 0, 1, -0.396755, 0);animation-play-state:paused" ></circle>
<circle cx="1505.6902901295002" cy="680.251893365" r="83.06844900404295" fill="#fea662" transform="matrix(1,0,0,1,0,0)" style="transform:matrix(1, 0, 0, 1, 0, 0);animation-play-state:paused" ></circle>
<circle cx="1588.7587391335433" cy="707.8667348012352" r="53.12802367872759" fill="#fea662" transform="matrix(1,0,0,1,-0.3967548906803131,0)" style="transform:matrix(1, 0, 0, 1, -0.396755, 0);animation-play-state:paused" ></circle></g></svg>