<svg xmlns="http://www.w3.org/2000/svg" version="1.1" xmlns:xlink="http://www.w3.org/1999/xlink" xmlns:svgjs="http://svgjs.com/svgjs" width="1440" height="560" preserveAspectRatio="none" viewBox="0 0 1440 560"><g mask="url(&quot;#SvgjsMask1003&quot;)" fill="none"><rect width="1440" height="560" x="0" y="0" fill="rgba(253, 245, 238, 1)"></rect><path d="M 0,260 C 57.6,221.4 172.8,74.8 288,67 C 403.2,59.2 460.8,232.4 576,221 C 691.2,209.6 748.8,22.8 864,10 C 979.2,-2.8 1036.8,150.6 1152,157 C 1267.2,163.4 1382.4,65 1440,42L1440 560L0 560z" fill="rgba(254, 195, 149, 1)"></path><path d="M 0,426 C 96,401.8 288,289.6 480,305 C 672,320.4 768,507 960,503 C 1152,499 1344,328.6 1440,285L1440 560L0 560z" fill="rgba(241, 127, 103, 1)"></path></g><defs><mask id="SvgjsMask1003"><rect width="1440" height="560" fill="#ffffff"></rect></mask></defs></svg>